<?xml version="1.0" standalone="no"?>
<svg xmlns:xlink="http://www.w3.org/1999/xlink" id="wave" style="transform:rotate(0deg); transition: 0.3s" viewBox="0 0 1440 230" version="1.1" xmlns="http://www.w3.org/2000/svg"><defs><linearGradient id="sw-gradient-0" x1="0" x2="0" y1="1" y2="0"><stop stop-color="rgba(243, 106, 62, 1)" offset="0%"/><stop stop-color="rgba(255, 179, 11, 1)" offset="100%"/></linearGradient></defs><path style="transform:translate(0, 0px); opacity:1" fill="url(#sw-gradient-0)" d="M0,207L40,195.5C80,184,160,161,240,149.5C320,138,400,138,480,118.8C560,100,640,61,720,38.3C800,15,880,8,960,26.8C1040,46,1120,92,1200,122.7C1280,153,1360,169,1440,149.5C1520,130,1600,77,1680,80.5C1760,84,1840,146,1920,145.7C2000,146,2080,84,2160,69C2240,54,2320,84,2400,88.2C2480,92,2560,69,2640,53.7C2720,38,2800,31,2880,46C2960,61,3040,100,3120,118.8C3200,138,3280,138,3360,149.5C3440,161,3520,184,3600,180.2C3680,176,3760,146,3840,138C3920,130,4000,146,4080,149.5C4160,153,4240,146,4320,126.5C4400,107,4480,77,4560,88.2C4640,100,4720,153,4800,145.7C4880,138,4960,69,5040,65.2C5120,61,5200,123,5280,153.3C5360,184,5440,184,5520,184C5600,184,5680,184,5720,184L5760,184L5760,230L5720,230C5680,230,5600,230,5520,230C5440,230,5360,230,5280,230C5200,230,5120,230,5040,230C4960,230,4880,230,4800,230C4720,230,4640,230,4560,230C4480,230,4400,230,4320,230C4240,230,4160,230,4080,230C4000,230,3920,230,3840,230C3760,230,3680,230,3600,230C3520,230,3440,230,3360,230C3280,230,3200,230,3120,230C3040,230,2960,230,2880,230C2800,230,2720,230,2640,230C2560,230,2480,230,2400,230C2320,230,2240,230,2160,230C2080,230,2000,230,1920,230C1840,230,1760,230,1680,230C1600,230,1520,230,1440,230C1360,230,1280,230,1200,230C1120,230,1040,230,960,230C880,230,800,230,720,230C640,230,560,230,480,230C400,230,320,230,240,230C160,230,80,230,40,230L0,230Z"/><defs><linearGradient id="sw-gradient-1" x1="0" x2="0" y1="1" y2="0"><stop stop-color="rgba(243, 106, 62, 1)" offset="0%"/><stop stop-color="rgba(255, 179, 11, 1)" offset="100%"/></linearGradient></defs><path style="transform:translate(0, 50px); opacity:0.9" fill="url(#sw-gradient-1)" d="M0,138L40,138C80,138,160,138,240,122.7C320,107,400,77,480,72.8C560,69,640,92,720,92C800,92,880,69,960,49.8C1040,31,1120,15,1200,19.2C1280,23,1360,46,1440,53.7C1520,61,1600,54,1680,72.8C1760,92,1840,138,1920,153.3C2000,169,2080,153,2160,141.8C2240,130,2320,123,2400,130.3C2480,138,2560,161,2640,145.7C2720,130,2800,77,2880,46C2960,15,3040,8,3120,38.3C3200,69,3280,138,3360,145.7C3440,153,3520,100,3600,84.3C3680,69,3760,92,3840,99.7C3920,107,4000,100,4080,80.5C4160,61,4240,31,4320,38.3C4400,46,4480,92,4560,99.7C4640,107,4720,77,4800,61.3C4880,46,4960,46,5040,46C5120,46,5200,46,5280,53.7C5360,61,5440,77,5520,103.5C5600,130,5680,169,5720,187.8L5760,207L5760,230L5720,230C5680,230,5600,230,5520,230C5440,230,5360,230,5280,230C5200,230,5120,230,5040,230C4960,230,4880,230,4800,230C4720,230,4640,230,4560,230C4480,230,4400,230,4320,230C4240,230,4160,230,4080,230C4000,230,3920,230,3840,230C3760,230,3680,230,3600,230C3520,230,3440,230,3360,230C3280,230,3200,230,3120,230C3040,230,2960,230,2880,230C2800,230,2720,230,2640,230C2560,230,2480,230,2400,230C2320,230,2240,230,2160,230C2080,230,2000,230,1920,230C1840,230,1760,230,1680,230C1600,230,1520,230,1440,230C1360,230,1280,230,1200,230C1120,230,1040,230,960,230C880,230,800,230,720,230C640,230,560,230,480,230C400,230,320,230,240,230C160,230,80,230,40,230L0,230Z"/></svg>