<?xml version="1.0" standalone="no"?>
<svg xmlns:xlink="http://www.w3.org/1999/xlink" id="wave" style="transform:rotate(0deg); transition: 0.3s" viewBox="0 0 1440 260" version="1.1" xmlns="http://www.w3.org/2000/svg"><defs><linearGradient id="sw-gradient-0" x1="0" x2="0" y1="1" y2="0"><stop stop-color="rgba(36, 155, 182, 1)" offset="0%"/><stop stop-color="rgba(15.031, 142.221, 171.079, 1)" offset="100%"/></linearGradient></defs><path style="transform:translate(0, 0px); opacity:1" fill="url(#sw-gradient-0)" d="M0,234L48,225.3C96,217,192,199,288,199.3C384,199,480,217,576,199.3C672,182,768,130,864,125.7C960,121,1056,165,1152,151.7C1248,139,1344,69,1440,65C1536,61,1632,121,1728,160.3C1824,199,1920,217,2016,212.3C2112,208,2208,182,2304,182C2400,182,2496,208,2592,212.3C2688,217,2784,199,2880,173.3C2976,147,3072,113,3168,104C3264,95,3360,113,3456,108.3C3552,104,3648,78,3744,91C3840,104,3936,156,4032,147.3C4128,139,4224,69,4320,60.7C4416,52,4512,104,4608,143C4704,182,4800,208,4896,190.7C4992,173,5088,113,5184,104C5280,95,5376,139,5472,160.3C5568,182,5664,182,5760,186.3C5856,191,5952,199,6048,182C6144,165,6240,121,6336,121.3C6432,121,6528,165,6624,160.3C6720,156,6816,104,6864,78L6912,52L6912,260L6864,260C6816,260,6720,260,6624,260C6528,260,6432,260,6336,260C6240,260,6144,260,6048,260C5952,260,5856,260,5760,260C5664,260,5568,260,5472,260C5376,260,5280,260,5184,260C5088,260,4992,260,4896,260C4800,260,4704,260,4608,260C4512,260,4416,260,4320,260C4224,260,4128,260,4032,260C3936,260,3840,260,3744,260C3648,260,3552,260,3456,260C3360,260,3264,260,3168,260C3072,260,2976,260,2880,260C2784,260,2688,260,2592,260C2496,260,2400,260,2304,260C2208,260,2112,260,2016,260C1920,260,1824,260,1728,260C1632,260,1536,260,1440,260C1344,260,1248,260,1152,260C1056,260,960,260,864,260C768,260,672,260,576,260C480,260,384,260,288,260C192,260,96,260,48,260L0,260Z"/><defs><linearGradient id="sw-gradient-1" x1="0" x2="0" y1="1" y2="0"><stop stop-color="rgba(63.669, 205.032, 237.106, 1)" offset="0%"/><stop stop-color="rgba(37.092, 106.979, 161.972, 1)" offset="100%"/></linearGradient></defs><path style="transform:translate(0, 50px); opacity:0.9" fill="url(#sw-gradient-1)" d="M0,0L48,8.7C96,17,192,35,288,34.7C384,35,480,17,576,30.3C672,43,768,87,864,121.3C960,156,1056,182,1152,195C1248,208,1344,208,1440,173.3C1536,139,1632,69,1728,39C1824,9,1920,17,2016,26C2112,35,2208,43,2304,47.7C2400,52,2496,52,2592,78C2688,104,2784,156,2880,151.7C2976,147,3072,87,3168,86.7C3264,87,3360,147,3456,169C3552,191,3648,173,3744,151.7C3840,130,3936,104,4032,86.7C4128,69,4224,61,4320,73.7C4416,87,4512,121,4608,121.3C4704,121,4800,87,4896,73.7C4992,61,5088,69,5184,86.7C5280,104,5376,130,5472,156C5568,182,5664,208,5760,221C5856,234,5952,234,6048,229.7C6144,225,6240,217,6336,208C6432,199,6528,191,6624,164.7C6720,139,6816,95,6864,73.7L6912,52L6912,260L6864,260C6816,260,6720,260,6624,260C6528,260,6432,260,6336,260C6240,260,6144,260,6048,260C5952,260,5856,260,5760,260C5664,260,5568,260,5472,260C5376,260,5280,260,5184,260C5088,260,4992,260,4896,260C4800,260,4704,260,4608,260C4512,260,4416,260,4320,260C4224,260,4128,260,4032,260C3936,260,3840,260,3744,260C3648,260,3552,260,3456,260C3360,260,3264,260,3168,260C3072,260,2976,260,2880,260C2784,260,2688,260,2592,260C2496,260,2400,260,2304,260C2208,260,2112,260,2016,260C1920,260,1824,260,1728,260C1632,260,1536,260,1440,260C1344,260,1248,260,1152,260C1056,260,960,260,864,260C768,260,672,260,576,260C480,260,384,260,288,260C192,260,96,260,48,260L0,260Z"/></svg>